<svg width="120" height="120" viewBox="0 0 120 120" fill="none" xmlns="http://www.w3.org/2000/svg">
<g clip-path="url(#clip0)">
<rect width="120" height="120" fill="white"/>
<rect x="3" y="3" width="114" height="114" rx="20" fill="#FF7A00"/>
<path d="M108 18.5L82 14L98 84L108 18.5Z" fill="white"/>
<path d="M101 90H92L88.5 99L96.5 104.5L104.5 99.5L101 90Z" fill="white"/>
<path d="M73.084 69.772V87.792L49.552 97.12L46.266 97.226C37.574 97.226 30.4367 95.4593 24.854 91.926C19.2713 88.322 15.208 83.7993 12.664 78.358C10.1907 72.846 8.954 67.122 8.954 61.186C8.954 50.0913 12.6287 40.9047 19.978 33.626C27.398 26.3473 37.0087 22.708 48.81 22.708C57.926 22.708 65.6287 24.8633 71.918 29.174L72.024 31.506C72.024 36.806 71.2113 42.4593 69.586 48.466H58.244L54.958 35.64C49.658 33.732 43.9693 32.8133 37.892 32.884C34.712 35.4987 32.274 39.1027 30.578 43.696C28.9527 48.2893 28.14 53.2007 28.14 58.43C28.14 66.5567 30.0833 73.1287 33.97 78.146C37.9273 83.0927 43.192 85.566 49.764 85.566L55.806 85.036V71.574C51.2127 69.5247 47.856 67.758 45.736 66.274L46.372 62.776H81.034L81.14 67.758L73.084 69.772Z" fill="white"/>
</g>
<defs>
<clipPath id="clip0">
<rect width="120" height="120" fill="white"/>
</clipPath>
</defs>
</svg>
